<?xml version="1.0" encoding="utf-8"?>
<!DOCTYPE svg PUBLIC "-//W3C//DTD SVG 1.1//EN" "http://www.w3.org/Graphics/SVG/1.1/DTD/svg11.dtd">
<svg version="1.1" id="Layer_1" xmlns="http://www.w3.org/2000/svg" xmlns:xlink="http://www.w3.org/1999/xlink" x="0px" y="0px"
	 viewBox="0 0 290.958 103.47" enable-background="new 0 0 290.958 103.47"
	 xml:space="preserve">
<path fill="#f3f3f3" d="M290.958,51.736L290.958,51.736L290.958,51.736c0-0.044,0-0.091-0.005-0.14
	C290.743,23.158,225.675,0.04,145.68,0.001c-0.067,0-0.134-0.001-0.201-0.001c0,0,0,0-0.001,0l0,0c0,0,0,0-0.001,0
	c-0.066,0-0.133,0.001-0.199,0.001C65.283,0.04,0.216,23.158,0.005,51.596C0,51.645,0,51.692,0,51.735v0.001l0,0l0,0
	c0,0.043,0,0.089,0.005,0.138c0.211,28.463,65.386,51.597,145.473,51.597l0,0l0,0h0.001c80.088,0,145.264-23.133,145.475-51.597
	C290.958,51.825,290.958,51.779,290.958,51.736L290.958,51.736z M28.62,51.736c0-1.041,0.082-2.074,0.225-3.101
	c6.472-0.364,13.963-0.705,22.368-1.01c-0.196,1.356-0.298,2.727-0.298,4.109s0.103,2.753,0.298,4.108
	c-8.405-0.305-15.896-0.645-22.368-1.01C28.701,53.808,28.62,52.776,28.62,51.736z M27.829,54.776
	c-15.927-0.92-25.424-1.991-26.75-3.041c1.326-1.05,10.823-2.121,26.75-3.041c-0.133,1.007-0.209,2.021-0.209,3.042
	C27.62,52.756,27.695,53.769,27.829,54.776z M51.914,51.735c0-1.396,0.109-2.777,0.314-4.146c6.338-0.225,13.178-0.431,20.484-0.61
	c-0.203,1.567-0.321,3.151-0.321,4.756s0.119,3.188,0.321,4.756c-7.306-0.181-14.146-0.386-20.484-0.611
	C52.023,54.512,51.914,53.13,51.914,51.735z M73.391,51.735c0-1.612,0.119-3.206,0.33-4.78c6.442-0.156,13.237-0.293,20.354-0.407
	c-0.171,1.707-0.26,3.438-0.26,5.188c0,1.75,0.089,3.479,0.26,5.186c-7.117-0.114-13.911-0.251-20.354-0.406
	C73.51,54.94,73.391,53.347,73.391,51.735z M196.143,51.736c0,1.756-0.09,3.491-0.265,5.202c-5.721,0.09-11.649,0.164-17.765,0.224
	c0.119-1.784,0.182-3.594,0.182-5.426c0-1.833-0.062-3.644-0.182-5.429c6.115,0.06,12.043,0.134,17.764,0.224
	C196.053,48.243,196.143,49.979,196.143,51.736z M180.425,88.417c-4.025,0.262-8.115,0.481-12.265,0.653
	c2.94-4.441,5.358-9.73,7.094-15.621c5.563-0.169,11-0.387,16.297-0.648C188.851,78.699,185.056,83.99,180.425,88.417z M99.406,72.8
	c5.296,0.262,10.732,0.479,16.294,0.648c1.735,5.891,4.153,11.18,7.094,15.621c-4.148-0.172-8.238-0.392-12.263-0.654
	C105.901,83.99,102.106,78.699,99.406,72.8z M94.814,51.736c0-1.757,0.09-3.493,0.265-5.205c5.72-0.089,11.647-0.164,17.762-0.224
	c-0.118,1.785-0.182,3.596-0.182,5.429c0,1.832,0.062,3.642,0.182,5.426c-6.114-0.06-12.042-0.134-17.762-0.224
	C94.905,55.227,94.814,53.492,94.814,51.736z M110.531,15.056c4.024-0.263,8.114-0.481,12.264-0.653
	c-2.94,4.441-5.357,9.729-7.093,15.619c-5.563,0.17-10.999,0.388-16.295,0.648C102.106,24.772,105.9,19.482,110.531,15.056z
	 M191.551,30.669c-5.298-0.261-10.733-0.479-16.298-0.648c-1.735-5.89-4.152-11.178-7.092-15.619
	c4.149,0.172,8.239,0.391,12.265,0.653C185.057,19.482,188.851,24.772,191.551,30.669z M177.295,51.736
	c0,1.836-0.065,3.648-0.185,5.435c-5.733,0.054-11.631,0.094-17.68,0.117c0.05-1.821,0.077-3.673,0.077-5.552
	c0-1.88-0.027-3.732-0.077-5.555c6.049,0.023,11.945,0.063,17.679,0.117C177.23,48.085,177.295,49.899,177.295,51.736z
	 M113.66,51.736c0-1.837,0.065-3.65,0.186-5.438c5.733-0.054,11.631-0.094,17.681-0.117c-0.05,1.822-0.077,3.675-0.077,5.555
	c0,1.879,0.027,3.73,0.077,5.552c-6.05-0.023-11.947-0.063-17.682-0.117C113.725,55.384,113.66,53.572,113.66,51.736z
	 M158.508,51.736c0,1.875-0.03,3.727-0.084,5.556c-4.244,0.016-8.558,0.024-12.945,0.024s-8.701-0.009-12.946-0.024
	c-0.054-1.829-0.084-3.681-0.084-5.556c0-1.876,0.03-3.729,0.084-5.559c4.245-0.016,8.559-0.024,12.946-0.024
	s8.701,0.009,12.945,0.024C158.478,48.007,158.508,49.86,158.508,51.736z M145.479,89.537c-2.889,0-5.755-0.025-8.603-0.068
	c-1.265-4.395-2.316-9.708-3.077-15.641c3.849,0.044,7.743,0.067,11.68,0.067s7.83-0.023,11.679-0.067
	c-0.761,5.934-1.812,11.246-3.077,15.641C151.234,89.511,148.368,89.537,145.479,89.537z M153.785,90.469
	c-2.273,7.45-5.183,12.001-8.307,12.001l0,0c-3.124,0-6.032-4.551-8.306-12.001c2.757,0.041,5.523,0.067,8.307,0.067
	S151.028,90.51,153.785,90.469z M145.479,72.895c-3.969,0-7.904-0.026-11.804-0.075c-0.551-4.543-0.931-9.43-1.108-14.528
	c4.271,0.016,8.574,0.024,12.912,0.024s8.641-0.009,12.911-0.024c-0.178,5.099-0.558,9.985-1.108,14.528
	C153.382,72.869,149.448,72.895,145.479,72.895z M145.479,45.153c-4.338,0-8.642,0.009-12.912,0.024
	c0.178-5.099,0.558-9.984,1.108-14.527c3.899-0.049,7.835-0.075,11.804-0.075s7.903,0.026,11.803,0.075
	c0.551,4.543,0.931,9.429,1.108,14.527C154.12,45.162,149.817,45.153,145.479,45.153z M145.479,29.575
	c-3.937,0-7.83,0.023-11.68,0.068c0.761-5.933,1.812-11.245,3.077-15.639c2.847-0.044,5.714-0.069,8.603-0.069
	s5.755,0.025,8.602,0.069c1.265,4.394,2.316,9.706,3.077,15.639C153.309,29.598,149.416,29.575,145.479,29.575z M145.479,12.935
	c-2.783,0-5.55,0.026-8.307,0.067C139.446,5.552,142.354,1,145.478,1l0,0c3.124,0,6.033,4.552,8.307,12.002
	C151.029,12.961,148.262,12.935,145.479,12.935z M148.596,1.247c6.704,1.045,12.799,5.427,17.634,12.079
	c-3.751-0.141-7.54-0.239-11.354-0.303C153.134,7.29,150.989,3.178,148.596,1.247z M136.081,13.023
	c-3.814,0.064-7.604,0.162-11.355,0.303c4.836-6.652,10.931-11.034,17.635-12.079C139.967,3.178,137.823,7.29,136.081,13.023z
	 M135.789,14.022c-1.265,4.413-2.301,9.701-3.042,15.635c-5.436,0.069-10.777,0.181-16.011,0.334
	c1.774-5.937,4.249-11.241,7.256-15.638C127.875,14.202,131.811,14.091,135.789,14.022z M132.625,30.664
	c-0.532,4.518-0.896,9.39-1.064,14.517c-5.968,0.023-11.848,0.063-17.636,0.117c0.401-5.022,1.263-9.816,2.519-14.273
	C121.747,30.859,127.148,30.739,132.625,30.664z M131.56,58.288c0.168,5.128,0.532,10,1.064,14.519
	c-5.477-0.075-10.879-0.195-16.183-0.361c-1.255-4.457-2.116-9.251-2.518-14.274C119.712,58.224,125.592,58.264,131.56,58.288z
	 M132.747,73.814c0.741,5.935,1.777,11.223,3.042,15.636c-3.978-0.069-7.912-0.18-11.796-0.331
	c-3.007-4.397-5.482-9.702-7.257-15.64C121.969,73.632,127.311,73.745,132.747,73.814z M136.081,90.449
	c1.742,5.732,3.887,9.844,6.279,11.774c-6.704-1.044-12.799-5.426-17.635-12.078C128.477,90.287,132.266,90.384,136.081,90.449z
	 M154.875,90.449c3.814-0.064,7.604-0.162,11.354-0.303c-4.836,6.651-10.931,11.033-17.634,12.077
	C150.989,100.292,153.133,96.181,154.875,90.449z M155.167,89.45c1.266-4.413,2.301-9.701,3.043-15.636
	c5.435-0.069,10.776-0.182,16.009-0.335c-1.774,5.938-4.25,11.242-7.256,15.64C163.08,89.27,159.145,89.38,155.167,89.45z
	 M158.333,72.806c0.532-4.519,0.896-9.391,1.064-14.519c5.967-0.023,11.847-0.063,17.634-0.117
	c-0.401,5.023-1.263,9.817-2.519,14.274C169.209,72.611,163.809,72.731,158.333,72.806z M159.397,45.181
	c-0.169-5.127-0.532-9.999-1.065-14.517c5.477,0.075,10.878,0.195,16.181,0.361c1.256,4.457,2.117,9.251,2.519,14.273
	C171.244,45.245,165.364,45.205,159.397,45.181z M158.21,29.657c-0.742-5.935-1.777-11.222-3.043-15.635
	c3.978,0.069,7.912,0.179,11.796,0.332c3.007,4.397,5.481,9.701,7.256,15.638C168.986,29.837,163.645,29.726,158.21,29.657z
	 M167.471,13.373c-3.838-5.473-8.497-9.535-13.647-11.672c9.685,1.615,18.449,5.984,25.457,12.283
	C175.387,13.739,171.453,13.532,167.471,13.373z M123.485,13.373c-3.981,0.159-7.916,0.366-11.809,0.611
	c7.008-6.299,15.771-10.667,25.456-12.282C131.982,3.838,127.322,7.9,123.485,13.373z M115.403,31.06
	c-1.238,4.459-2.085,9.244-2.48,14.249c-6.028,0.058-11.944,0.131-17.715,0.22c0.592-4.833,1.855-9.46,3.71-13.777
	C104.287,31.473,109.791,31.242,115.403,31.06z M112.922,58.161c0.395,5.006,1.242,9.791,2.48,14.25
	c-5.613-0.182-11.116-0.413-16.485-0.69c-1.855-4.318-3.119-8.945-3.71-13.779C100.979,58.03,106.894,58.103,112.922,58.161z
	 M123.485,90.099c3.838,5.472,8.497,9.534,13.647,11.671c-9.684-1.615-18.447-5.983-25.455-12.282
	C115.57,89.733,119.504,89.94,123.485,90.099z M167.47,90.099c3.981-0.159,7.917-0.366,11.81-0.61
	c-7.008,6.298-15.771,10.666-25.456,12.281C158.973,99.633,163.633,95.571,167.47,90.099z M175.552,72.411
	c1.238-4.459,2.086-9.244,2.481-14.249c6.028-0.059,11.944-0.132,17.717-0.221c-0.592,4.834-1.855,9.461-3.711,13.779
	C186.669,71.998,181.167,72.229,175.552,72.411z M178.033,45.308c-0.396-5.005-1.242-9.79-2.48-14.249
	c5.613,0.182,11.117,0.414,16.487,0.691c1.855,4.318,3.119,8.945,3.711,13.778C189.978,45.439,184.061,45.366,178.033,45.308z
	 M193.152,31.809c6.673,0.354,13.135,0.779,19.343,1.27c2.29,4.061,3.859,8.374,4.588,12.866c-6.526-0.155-13.314-0.29-20.322-0.4
	C196.184,40.735,194.958,36.123,193.152,31.809z M192.672,30.724c-2.601-5.834-6.236-11.107-10.691-15.566
	c5.189,0.355,10.264,0.785,15.211,1.282c6.145,4.458,11.149,9.697,14.654,15.494C205.705,31.465,199.303,31.06,192.672,30.724z
	 M180.847,14.076c-5.936-5.592-13.185-9.793-21.231-12.09c13.792,1.938,26.166,6.659,35.911,13.286
	C190.724,14.807,185.831,14.404,180.847,14.076z M110.11,14.076c-4.983,0.328-9.877,0.731-14.681,1.196
	c9.745-6.628,22.12-11.349,35.912-13.287C123.293,4.282,116.045,8.483,110.11,14.076z M108.977,15.158
	c-4.456,4.458-8.091,9.732-10.692,15.566c-6.63,0.335-13.032,0.741-19.174,1.21c3.504-5.796,8.51-11.036,14.654-15.494
	C98.712,15.943,103.787,15.513,108.977,15.158z M97.805,31.809c-1.805,4.314-3.032,8.926-3.608,13.735
	c-7.008,0.11-13.796,0.244-20.323,0.4c0.729-4.492,2.298-8.806,4.588-12.866C84.67,32.588,91.132,32.163,97.805,31.809z
	 M94.197,57.924c0.576,4.811,1.802,9.423,3.607,13.737c-6.673-0.354-13.135-0.78-19.342-1.271c-2.291-4.061-3.86-8.374-4.589-12.867
	C80.4,57.679,87.189,57.814,94.197,57.924z M98.284,72.746c2.601,5.835,6.237,11.109,10.693,15.568
	c-5.189-0.355-10.264-0.785-15.21-1.282c-6.146-4.459-11.151-9.698-14.656-15.496C85.252,72.004,91.654,72.411,98.284,72.746z
	 M110.111,89.396c5.934,5.591,13.182,9.791,21.228,12.088c-13.79-1.938-26.163-6.658-35.907-13.284
	C100.235,88.665,105.128,89.068,110.111,89.396z M180.846,89.396c4.982-0.328,9.876-0.731,14.679-1.196
	c-9.744,6.626-22.117,11.347-35.906,13.284C167.665,99.187,174.913,94.987,180.846,89.396z M181.98,88.314
	c4.456-4.459,8.093-9.733,10.693-15.568c6.63-0.335,13.031-0.74,19.173-1.21c-3.505,5.798-8.512,11.037-14.657,15.496
	C192.243,87.529,187.169,87.958,181.98,88.314z M193.153,71.662c1.805-4.314,3.032-8.927,3.607-13.737
	c7.008-0.11,13.797-0.245,20.322-0.4c-0.729,4.493-2.298,8.807-4.588,12.867C206.287,70.881,199.826,71.307,193.153,71.662z
	 M196.883,56.921c0.17-1.706,0.26-3.436,0.26-5.186c0-1.751-0.09-3.481-0.26-5.188c7.116,0.114,13.911,0.251,20.354,0.407
	c0.21,1.574,0.329,3.168,0.329,4.78s-0.119,3.205-0.329,4.78C210.794,56.67,204,56.807,196.883,56.921z M218.245,46.979
	c7.306,0.18,14.146,0.385,20.484,0.61c0.205,1.368,0.314,2.75,0.314,4.146s-0.109,2.777-0.313,4.145
	c-6.339,0.226-13.179,0.431-20.485,0.611c0.203-1.567,0.321-3.151,0.321-4.756S218.448,48.546,218.245,46.979z M239.746,47.625
	c8.405,0.305,15.896,0.646,22.368,1.01c0.144,1.026,0.225,2.06,0.225,3.101c0,1.04-0.081,2.072-0.225,3.098
	c-6.472,0.365-13.963,0.705-22.368,1.01c0.195-1.355,0.298-2.726,0.298-4.108S239.941,48.982,239.746,47.625z M263.129,48.694
	c15.927,0.92,25.425,1.991,26.751,3.041c-1.326,1.05-10.823,2.121-26.751,3.041c0.134-1.007,0.209-2.02,0.209-3.04
	C263.338,50.714,263.263,49.701,263.129,48.694z M262.975,47.666c-0.531-2.981-1.642-5.893-3.28-8.711
	c17.409,3.299,28.434,7.335,30.053,11.669C287.512,49.785,281.136,48.709,262.975,47.666z M261.95,47.608
	c-4.053-0.228-8.669-0.453-13.934-0.674c-2.718-0.114-5.548-0.222-8.437-0.325c-0.708-3.919-2.218-7.71-4.439-11.325
	c8.597,1.015,16.42,2.167,23.291,3.433C260.19,41.589,261.381,44.56,261.95,47.608z M238.562,46.572
	c-6.443-0.227-13.287-0.428-20.461-0.603c-0.702-4.461-2.214-8.75-4.42-12.797c7.104,0.573,13.864,1.232,20.215,1.965
	C236.228,38.78,237.821,42.609,238.562,46.572z M213.042,32.027c-3.34-5.716-8.085-10.917-13.932-15.39
	c6.066,0.637,11.931,1.378,17.56,2.216c6.976,4.434,12.568,9.523,16.418,15.074C226.796,33.214,220.093,32.579,213.042,32.027z
	 M197.55,15.479c-8.228-5.92-18.444-10.447-29.879-13.033c18.314,2.425,34.534,7.778,46.863,15.093
	C209.045,16.752,203.369,16.068,197.55,15.479z M93.406,15.479c-5.818,0.59-11.495,1.274-16.983,2.061
	c12.329-7.314,28.547-12.667,46.86-15.093C111.849,5.032,101.633,9.559,93.406,15.479z M91.845,16.637
	c-5.846,4.473-10.591,9.674-13.931,15.39c-7.051,0.551-13.754,1.187-20.046,1.9c3.85-5.55,9.443-10.641,16.418-15.074
	C79.916,18.015,85.779,17.274,91.845,16.637z M77.276,33.172c-2.207,4.048-3.717,8.336-4.42,12.797
	c-7.173,0.175-14.017,0.376-20.461,0.603c0.742-3.963,2.334-7.792,4.667-11.435C63.412,34.404,70.172,33.746,77.276,33.172z
	 M51.378,46.609c-2.889,0.104-5.719,0.211-8.437,0.325c-5.265,0.221-9.88,0.446-13.933,0.674c0.568-3.048,1.76-6.019,3.519-8.892
	c6.871-1.266,14.694-2.417,23.29-3.432C53.595,38.899,52.085,42.69,51.378,46.609z M27.983,47.666
	C9.823,48.709,3.446,49.785,1.21,50.624c1.619-4.334,12.644-8.37,30.052-11.669C29.625,41.774,28.514,44.684,27.983,47.666z
	 M27.983,55.803c0.531,2.981,1.641,5.893,3.279,8.712C13.854,61.216,2.83,57.18,1.21,52.845
	C3.446,53.685,9.822,54.759,27.983,55.803z M29.008,55.862c4.053,0.227,8.669,0.452,13.934,0.673
	c2.717,0.114,5.547,0.222,8.436,0.325c0.708,3.919,2.218,7.711,4.439,11.326c-8.596-1.015-16.42-2.167-23.291-3.433
	C30.768,61.88,29.575,58.909,29.008,55.862z M52.395,56.896c6.444,0.228,13.288,0.429,20.461,0.604
	c0.702,4.462,2.213,8.751,4.42,12.799c-7.104-0.573-13.864-1.232-20.214-1.966C54.729,64.69,53.137,60.861,52.395,56.896z
	 M77.915,71.443C81.255,77.16,86,82.361,91.848,86.834c-6.065-0.637-11.928-1.378-17.557-2.215
	c-6.977-4.435-12.571-9.525-16.422-15.076C64.161,70.256,70.863,70.891,77.915,71.443z M93.408,87.994
	c8.227,5.918,18.442,10.444,29.875,13.03c-18.311-2.425-34.528-7.777-46.857-15.091C81.915,86.719,87.59,87.403,93.408,87.994z
	 M197.548,87.994c5.818-0.591,11.495-1.274,16.983-2.061c-12.329,7.313-28.548,12.667-46.86,15.092
	C179.105,98.439,189.321,93.913,197.548,87.994z M199.109,86.834c5.848-4.474,10.593-9.675,13.934-15.392
	c7.051-0.552,13.754-1.187,20.046-1.899c-3.85,5.551-9.444,10.642-16.421,15.076C211.038,85.457,205.174,86.198,199.109,86.834z
	 M213.681,70.298c2.206-4.048,3.718-8.337,4.42-12.799c7.174-0.175,14.018-0.376,20.462-0.604
	c-0.742,3.965-2.334,7.794-4.667,11.437C227.545,69.066,220.785,69.725,213.681,70.298z M239.58,56.86
	c2.889-0.104,5.719-0.211,8.437-0.325c5.265-0.221,9.881-0.446,13.935-0.673c-0.568,3.047-1.761,6.019-3.519,8.892
	c-6.871,1.266-14.695,2.418-23.292,3.433C237.363,64.571,238.873,60.779,239.58,56.86z M262.975,55.803
	c18.161-1.044,24.537-2.118,26.772-2.958c-1.619,4.335-12.643,8.371-30.052,11.671C261.334,61.696,262.445,58.785,262.975,55.803z
	 M258.937,37.714c-3.018-4.698-7.516-9.125-13.252-13.182c24.409,6.157,40.575,14.534,43.706,23.875
	C285.552,44.363,274.791,40.707,258.937,37.714z M257.628,37.47c-6.883-1.261-14.685-2.399-23.262-3.395
	c-3.623-5.441-8.874-10.458-15.424-14.876c8.688,1.348,16.795,2.926,24.191,4.704C249.417,28.044,254.34,32.606,257.628,37.47z
	 M216.965,17.903c-10.878-6.87-25-12.161-41.05-15.153c26.477,3.104,49.261,10.153,64.776,19.602
	C233.295,20.647,225.352,19.161,216.965,17.903z M73.993,17.903c-8.387,1.258-16.331,2.745-23.727,4.448
	c15.516-9.449,38.3-16.498,64.777-19.602C98.993,5.743,84.87,11.033,73.993,17.903z M72.014,19.199
	c-6.55,4.418-11.801,9.435-15.424,14.876c-8.577,0.995-16.378,2.133-23.261,3.394c3.288-4.863,8.211-9.425,14.494-13.566
	C55.22,22.125,63.326,20.547,72.014,19.199z M32.021,37.714C16.167,40.707,5.407,44.363,1.567,48.407
	c3.131-9.341,19.297-17.718,43.706-23.875C39.537,28.588,35.039,33.016,32.021,37.714z M32.02,65.756
	c3.018,4.698,7.517,9.127,13.254,13.185C20.862,72.783,4.694,64.405,1.566,55.062C5.404,59.106,16.165,62.763,32.02,65.756z
	 M33.329,66c6.882,1.262,14.685,2.4,23.262,3.396c3.624,5.442,8.876,10.46,15.427,14.878c-8.688-1.348-16.795-2.926-24.192-4.704
	C41.542,75.427,36.617,70.865,33.329,66z M73.995,85.569c10.878,6.87,25.003,12.161,41.054,15.153
	C88.571,97.619,65.784,90.57,50.268,81.121C57.665,82.825,65.608,84.311,73.995,85.569z M216.962,85.569
	c8.387-1.258,16.331-2.744,23.729-4.448c-15.518,9.449-38.305,16.498-64.783,19.602C191.959,97.73,206.083,92.439,216.962,85.569z
	 M218.94,84.273c6.552-4.418,11.803-9.436,15.427-14.878c8.578-0.995,16.38-2.134,23.263-3.396
	c-3.288,4.865-8.213,9.428-14.497,13.569C235.735,81.347,227.628,82.925,218.94,84.273z M258.938,65.756
	c15.855-2.993,26.616-6.65,30.455-10.694c-3.129,9.343-19.297,17.722-43.71,23.879C251.421,74.883,255.92,70.455,258.938,65.756z
	 M288.497,44.534c-5.327-7.711-19.199-14.771-40.374-20.364c-1.538-0.406-3.114-0.799-4.708-1.185
	c-14.19-9.283-35.041-16.446-59.525-20.161C238.564,8.125,280.334,24.452,288.497,44.534z M107.069,2.824
	C82.585,6.539,61.734,13.702,47.544,22.985c-1.594,0.386-3.17,0.778-4.708,1.185C21.661,29.763,7.79,36.823,2.462,44.534
	C10.625,24.452,52.395,8.125,107.069,2.824z M2.464,58.941c5.329,7.709,19.199,14.768,40.372,20.361
	c1.539,0.406,3.115,0.799,4.709,1.185c14.189,9.282,35.04,16.444,59.522,20.16C52.398,95.346,10.63,79.021,2.464,58.941z
	 M183.891,100.647c24.482-3.716,45.333-10.878,59.522-20.16c1.594-0.386,3.171-0.778,4.709-1.185
	c21.173-5.594,35.044-12.652,40.372-20.362C280.329,79.021,238.561,95.346,183.891,100.647z"/>
</svg>
