<?xml version="1.0" encoding="utf-8"?>
<!-- Generator: Adobe Illustrator 15.1.0, SVG Export Plug-In . SVG Version: 6.00 Build 0)  -->
<!DOCTYPE svg PUBLIC "-//W3C//DTD SVG 1.1//EN" "http://www.w3.org/Graphics/SVG/1.1/DTD/svg11.dtd">
<svg version="1.1" id="Layer_1" xmlns="http://www.w3.org/2000/svg" xmlns:xlink="http://www.w3.org/1999/xlink" x="0px" y="0px"
	 width="175.253px" height="126.527px" viewBox="0 0 175.253 126.527" enable-background="new 0 0 175.253 126.527"
	 xml:space="preserve">
<path d="M175.182,60.445c-0.501-11.363-4.02-21.95-9.764-30.994c-6.926-10.904-17.084-19.559-29.13-24.59
	c-0.919-0.384-1.849-0.748-2.79-1.09c-0.006-0.002-0.012-0.004-0.019-0.006c-0.952-0.346-1.916-0.67-2.89-0.971
	c-0.021-0.006-0.041-0.011-0.062-0.017c-0.005-0.001-0.009-0.003-0.014-0.004c-0.003-0.001-0.007-0.002-0.011-0.003
	c-0.134-0.041-0.271-0.074-0.405-0.114c-0.82-0.246-1.643-0.485-2.476-0.698c-0.062-0.016-0.126-0.027-0.188-0.043
	c-0.938-0.236-1.882-0.455-2.836-0.65c-0.14-0.027-0.282-0.048-0.423-0.075c-0.879-0.173-1.762-0.335-2.653-0.471
	c-0.267-0.04-0.538-0.065-0.805-0.103c-0.772-0.107-1.545-0.215-2.326-0.294c-0.468-0.047-0.941-0.07-1.412-0.107
	c-0.589-0.046-1.174-0.104-1.768-0.134C114.144,0.027,113.066,0,111.983,0s-2.16,0.027-3.229,0.082
	c-0.594,0.029-1.179,0.088-1.768,0.134c-0.471,0.037-0.944,0.061-1.412,0.107c-0.781,0.079-1.554,0.187-2.326,0.294
	c-0.267,0.037-0.538,0.062-0.805,0.103c-0.892,0.136-1.774,0.298-2.653,0.471c-0.141,0.027-0.283,0.048-0.423,0.075
	c-0.954,0.195-1.898,0.414-2.836,0.65c-0.062,0.016-0.125,0.027-0.188,0.043c-0.833,0.213-1.655,0.452-2.476,0.698
	c-0.134,0.04-0.271,0.073-0.405,0.114c-0.004,0.001-0.008,0.002-0.011,0.003c-0.005,0.001-0.009,0.003-0.014,0.004
	c-0.021,0.006-0.041,0.011-0.062,0.017c-0.974,0.301-1.938,0.625-2.89,0.971c-0.007,0.002-0.013,0.004-0.019,0.006
	c-0.941,0.342-1.871,0.706-2.791,1.09c-0.012,0.005-0.023,0.01-0.035,0.014c-0.006,0.003-0.013,0.005-0.02,0.008
	C80.119,1.741,71.893,0,63.264,0C28.379,0,0,28.379,0,63.264c0,34.88,28.373,63.257,63.252,63.264c0.004,0,0.008,0,0.012,0h97.439
	c0.004,0,0.008,0,0.012,0c8.03-0.004,14.538-6.513,14.538-14.544V94.142V66.445v-3.182
	C175.253,62.318,175.223,61.381,175.182,60.445z M48.785,60.445c-0.041,0.936-0.071,1.873-0.071,2.818v3.182v27.69
	C37.141,88.677,29.13,76.908,29.13,63.264c0-17.244,12.794-31.491,29.405-33.789C52.799,38.514,49.285,49.091,48.785,60.445z
	 M119.321,29.922c0.783,0.174,1.553,0.382,2.314,0.607c0.079,0.023,0.162,0.039,0.241,0.063c0.794,0.241,1.573,0.516,2.342,0.812
	c0.044,0.017,0.09,0.029,0.134,0.046c0.628,0.246,1.239,0.523,1.849,0.805c0.177,0.081,0.361,0.148,0.537,0.233
	c0.002,0.001,0.003,0.001,0.005,0.002s0.004,0.002,0.006,0.003c0.011,0.006,0.021,0.01,0.03,0.016
	c0.014,0.006,0.027,0.012,0.04,0.019c0.472,0.229,0.937,0.466,1.396,0.715c0.018,0.01,0.035,0.019,0.053,0.028
	c2.172,1.182,4.199,2.594,6.056,4.198c0.056,0.048,0.116,0.091,0.172,0.14c0.205,0.179,0.394,0.375,0.594,0.559
	c0.421,0.387,0.847,0.769,1.247,1.176c5.453,5.533,9.034,12.906,9.708,21.102c0.077,0.93,0.122,1.869,0.122,2.818v3.182v2.726
	h-29.182V29.503C117.771,29.619,118.553,29.753,119.321,29.922z M77.801,63.264c0-0.949,0.046-1.889,0.122-2.818
	c0.673-8.181,4.243-15.543,9.682-21.073c0.009-0.009,0.018-0.019,0.026-0.028c0.034-0.035,0.072-0.065,0.105-0.1
	c2.342-2.355,5.022-4.373,7.963-5.973c0.018-0.01,0.035-0.019,0.053-0.028c0.459-0.249,0.924-0.486,1.396-0.715
	c0.013-0.007,0.026-0.013,0.04-0.019c0.01-0.006,0.02-0.01,0.03-0.016c0.002-0.001,0.004-0.002,0.006-0.003s0.003-0.001,0.005-0.002
	c0.171-0.082,0.35-0.147,0.521-0.228c0.615-0.283,1.231-0.562,1.865-0.811c0.009-0.004,0.019-0.006,0.028-0.01
	c0.801-0.312,1.616-0.597,2.446-0.849c0.074-0.022,0.151-0.037,0.225-0.06c0.768-0.228,1.543-0.437,2.331-0.611
	c0.77-0.169,1.551-0.303,2.339-0.419v39.668H77.801v-2.726V63.264z M77.801,95.263v-1.114v-0.018v-14.96h29.184v18.27H77.801V95.263
	z M146.166,95.263v2.178h-29.182v-18.27h29.182v14.978V95.263z"/>
</svg>
