<?xml version="1.0" encoding="utf-8"?>
<!-- Generator: Adobe Illustrator 15.1.0, SVG Export Plug-In . SVG Version: 6.00 Build 0)  -->
<!DOCTYPE svg PUBLIC "-//W3C//DTD SVG 1.1//EN" "http://www.w3.org/Graphics/SVG/1.1/DTD/svg11.dtd">
<svg version="1.1" id="Layer_1" xmlns="http://www.w3.org/2000/svg" xmlns:xlink="http://www.w3.org/1999/xlink" x="0px" y="0px"
	 width="234.161px" height="169.057px" viewBox="0 0 234.161 169.057" enable-background="new 0 0 234.161 169.057"
	 xml:space="preserve">
<path d="M234.065,80.763c-0.67-15.183-5.371-29.329-13.046-41.412c-9.253-14.569-22.825-26.133-38.921-32.855
	c-1.227-0.514-2.469-0.999-3.727-1.456c-0.008-0.003-0.016-0.006-0.025-0.008c-1.271-0.462-2.561-0.895-3.861-1.297
	c-0.027-0.008-0.055-0.015-0.082-0.022c-0.006-0.001-0.012-0.004-0.018-0.005c-0.004-0.001-0.01-0.003-0.015-0.005
	c-0.179-0.055-0.362-0.099-0.542-0.152c-1.096-0.328-2.194-0.648-3.307-0.933c-0.084-0.021-0.169-0.036-0.252-0.058
	c-1.252-0.315-2.514-0.608-3.789-0.869c-0.186-0.036-0.376-0.063-0.564-0.1c-1.174-0.231-2.354-0.448-3.545-0.629
	c-0.355-0.054-0.719-0.088-1.075-0.138c-1.032-0.144-2.064-0.287-3.108-0.393c-0.625-0.062-1.258-0.094-1.887-0.144
	c-0.787-0.062-1.568-0.14-2.361-0.179C152.512,0.036,151.072,0,149.626,0c-1.447,0-2.887,0.036-4.315,0.109
	c-0.794,0.039-1.575,0.117-2.362,0.179c-0.629,0.05-1.262,0.081-1.887,0.144c-1.043,0.105-2.076,0.249-3.107,0.393
	c-0.356,0.05-0.719,0.084-1.075,0.138c-1.192,0.181-2.371,0.397-3.546,0.629c-0.188,0.036-0.378,0.063-0.564,0.1
	c-1.275,0.261-2.537,0.554-3.789,0.869c-0.082,0.021-0.167,0.037-0.251,0.058c-1.112,0.284-2.212,0.604-3.308,0.933
	c-0.179,0.054-0.362,0.098-0.541,0.152c-0.006,0.002-0.011,0.004-0.015,0.005c-0.007,0.001-0.012,0.004-0.019,0.005
	c-0.027,0.008-0.055,0.015-0.082,0.022c-1.301,0.402-2.589,0.835-3.861,1.297c-0.009,0.002-0.017,0.005-0.024,0.008
	c-1.258,0.457-2.5,0.942-3.729,1.456c-0.016,0.007-0.031,0.013-0.047,0.019c-0.008,0.003-0.017,0.007-0.026,0.01
	C107.05,2.326,96.059,0,84.529,0C37.919,0,0.001,37.918,0.001,84.528c0,46.604,37.91,84.52,84.513,84.528c0.005,0,0.011,0,0.016,0
	h130.191c0.005,0,0.01,0,0.016,0c10.729-0.005,19.424-8.702,19.424-19.433v-23.839V88.779v-4.251
	C234.16,83.266,234.12,82.013,234.065,80.763z M65.185,80.763c-0.055,1.25-0.095,2.503-0.095,3.766v4.251v36.998
	c-15.463-7.294-26.167-23.019-26.167-41.249c0-23.04,17.095-42.076,39.289-45.146C70.547,51.459,65.853,65.591,65.185,80.763z
	 M103.953,88.779v-4.251c0-1.269,0.061-2.523,0.163-3.766c0.141-1.718,0.389-3.403,0.716-5.061h40.118v22.735h-40.997V88.779z
	 M154.304,75.702h40.115c0.326,1.657,0.574,3.343,0.716,5.061c0.103,1.242,0.163,2.497,0.163,3.766v4.251v9.658h-40.994V75.702z
	 M159.43,39.979c1.046,0.232,2.075,0.51,3.093,0.812c0.105,0.031,0.217,0.053,0.322,0.085c1.061,0.322,2.102,0.688,3.129,1.086
	c0.059,0.021,0.119,0.039,0.178,0.061c0.84,0.329,1.656,0.699,2.471,1.075c0.236,0.108,0.482,0.198,0.718,0.312
	c0.003,0.002,0.004,0.002,0.007,0.003c0.002,0.002,0.005,0.002,0.008,0.004c0.014,0.009,0.027,0.014,0.04,0.021
	c0.019,0.009,0.036,0.016,0.054,0.025c0.63,0.306,1.251,0.623,1.865,0.955c0.022,0.013,0.046,0.024,0.07,0.038
	c2.901,1.578,5.609,3.466,8.09,5.609c0.074,0.063,0.156,0.121,0.23,0.187c0.273,0.238,0.525,0.501,0.793,0.746
	c0.562,0.517,1.131,1.026,1.666,1.571c3.9,3.957,7.074,8.623,9.329,13.781h-37.188V39.211c0.543,0.057,1.092,0.097,1.631,0.171
	c-0.007-0.011-0.014-0.021-0.021-0.033C157.103,39.513,158.274,39.726,159.43,39.979z M117.087,52.568
	c0.045-0.048,0.097-0.087,0.141-0.134c3.128-3.146,6.71-5.843,10.64-7.979c0.022-0.014,0.047-0.025,0.07-0.038
	c0.613-0.332,1.234-0.649,1.864-0.955c0.017-0.01,0.035-0.017,0.054-0.025c0.013-0.007,0.025-0.012,0.04-0.021
	c0.003-0.002,0.005-0.002,0.008-0.004c0.003-0.001,0.004-0.001,0.007-0.003c0.229-0.109,0.467-0.197,0.697-0.304
	c0.821-0.379,1.645-0.751,2.492-1.083c0.012-0.006,0.023-0.008,0.037-0.013c1.07-0.418,2.159-0.798,3.269-1.134
	c0.099-0.03,0.202-0.05,0.3-0.08c1.025-0.304,2.062-0.583,3.115-0.816c1.156-0.254,2.328-0.467,3.515-0.631
	c-0.007,0.012-0.013,0.022-0.019,0.033c0.539-0.074,1.088-0.114,1.633-0.173V66.35h-37.191c2.248-5.141,5.409-9.794,9.293-13.743
	C117.064,52.595,117.075,52.581,117.087,52.568z M103.953,130.192v-2.909v-1.488v-0.024v-17.979h40.997v22.401h-1.303H103.953z
	 M195.298,127.283v2.909h-39.695h-1.299v-22.401h40.994v18.004V127.283z"/>
</svg>
