<?xml version="1.0" encoding="utf-8"?>
<!-- Generator: Adobe Illustrator 15.1.0, SVG Export Plug-In . SVG Version: 6.00 Build 0)  -->
<!DOCTYPE svg PUBLIC "-//W3C//DTD SVG 1.1//EN" "http://www.w3.org/Graphics/SVG/1.1/DTD/svg11.dtd">
<svg version="1.1" id="Layer_1" xmlns="http://www.w3.org/2000/svg" xmlns:xlink="http://www.w3.org/1999/xlink" x="0px" y="0px"
	 width="251.772px" height="171px" viewBox="0 0 251.772 171" enable-background="new 0 0 251.772 171" xml:space="preserve">
<path d="M202.075,7.857C190.783,2.644,178.739,0,166.278,0H85.5C38.355,0,0,38.355,0,85.5S38.355,171,85.5,171h80.778
	c12.296,0,24.197-2.579,35.373-7.666c30.447-13.855,50.121-44.407,50.121-77.834C251.772,52.273,232.264,21.797,202.075,7.857z
	 M90.5,40.272c4.853,0.53,9.554,1.835,14.03,3.901c14.548,6.717,24.436,20.638,26.186,36.326H90.5V40.272z M130.717,90.5
	c-1.756,15.784-11.732,29.747-26.412,36.428c-4.411,2.007-9.037,3.276-13.805,3.798V90.5H130.717z M80.5,40.28V80.5H40.281
	C42.598,59.398,59.399,42.599,80.5,40.28z M40.281,90.5H80.5v40.22C59.399,128.401,42.598,111.602,40.281,90.5z M185.083,126.928
	c-5.938,2.702-12.265,4.072-18.805,4.072h-8.457c8.426-13.387,13.174-29.095,13.174-45.5c0-16.389-4.753-32.104-13.187-45.5h8.47
	c6.629,0,13.031,1.404,19.029,4.174c16.076,7.423,26.465,23.645,26.465,41.326C211.772,103.288,201.295,119.549,185.083,126.928z"/>
</svg>
