<?xml version="1.0" encoding="utf-8"?>
<!-- Generator: Adobe Illustrator 15.1.0, SVG Export Plug-In . SVG Version: 6.00 Build 0)  -->
<!DOCTYPE svg PUBLIC "-//W3C//DTD SVG 1.1//EN" "http://www.w3.org/Graphics/SVG/1.1/DTD/svg11.dtd">
<svg version="1.1" id="Layer_1" xmlns="http://www.w3.org/2000/svg" xmlns:xlink="http://www.w3.org/1999/xlink" x="0px" y="0px"
	 width="87.986px" height="121.392px" viewBox="-29.031 -45.892 87.986 121.392"
	 enable-background="new -29.031 -45.892 87.986 121.392" xml:space="preserve">
<g>
	<g>
		<path fill="#EDEDED" d="M-18.484-31.639v67.107h67.109v-67.107H-18.484z M15.069,30.601c-15.843,0-28.685-12.844-28.685-28.684
			c0-15.843,12.844-28.688,28.685-28.688c15.84,0,28.688,12.844,28.688,28.688C43.757,17.757,30.909,30.601,15.069,30.601z"/>
		<circle fill="#EDEDED" cx="15.069" cy="1.916" r="19.536"/>
	</g>
	<g>
		<path fill="#EDEDED" d="M-18.7,51.862c0-5.467,3.996-9.379,9.464-9.379c5.492,0,9.488,3.912,9.488,9.379s-3.996,9.382-9.488,9.382
			C-14.705,61.244-18.7,57.329-18.7,51.862z M-3.719,51.862c0-3.399-2.174-5.954-5.518-5.954c-3.346,0-5.492,2.555-5.492,5.954
			c0,3.371,2.148,5.957,5.492,5.957C-5.894,57.819-3.719,55.233-3.719,51.862z"/>
		<path fill="#EDEDED" d="M19.009,60.918V48.219l-5.109,12.699h-1.686L7.101,48.219v12.699H3.24V42.783h5.411l4.405,10.956
			l4.406-10.956h5.436v18.135H19.009z"/>
		<path fill="#EDEDED" d="M26.756,60.918V42.783h3.864v18.135H26.756z"/>
		<path fill="#EDEDED" d="M33.256,58.363l2.093-2.939c1.276,1.336,3.262,2.449,5.763,2.449c2.123,0,3.157-0.98,3.157-2.014
			c0-3.208-10.444-1.007-10.444-7.831c0-3.018,2.612-5.519,6.882-5.519c2.881,0,5.273,0.868,7.068,2.528l-2.146,2.827
			c-1.47-1.357-3.429-1.983-5.276-1.983c-1.659,0-2.586,0.734-2.586,1.823c0,2.881,10.417,0.949,10.417,7.719
			c0,3.32-2.367,5.823-7.26,5.823C37.44,61.244,34.943,60.074,33.256,58.363z"/>
	</g>
</g>
</svg>
