<?xml version="1.0" encoding="utf-8"?>
<!DOCTYPE svg PUBLIC "-//W3C//DTD SVG 1.1//EN" "http://www.w3.org/Graphics/SVG/1.1/DTD/svg11.dtd">
<svg version="1.1" id="Layer_1" xmlns="http://www.w3.org/2000/svg" xmlns:xlink="http://www.w3.org/1999/xlink" x="0px" y="0px" viewBox="0 0 74 100" enable-background="new 0 0 74 100" xml:space="preserve">
<g>
	<g>
		<path fill="#C9C9C9" d="M0.865-0.654v72.251h72.251V-0.654H0.865z M36.99,66.354c-17.057,0-30.883-13.826-30.883-30.882
			c0-17.058,13.827-30.886,30.883-30.886c17.056,0,30.885,13.828,30.885,30.886C67.875,52.528,54.046,66.354,36.99,66.354z"/>
		<circle fill="#C9C9C9" cx="36.99" cy="35.472" r="21.034"/>
	</g>
	<g>
		<path fill="#C9C9C9" d="M0.633,89.245c0-5.884,4.302-10.098,10.188-10.098c5.913,0,10.216,4.214,10.216,10.098
			c0,5.885-4.303,10.101-10.216,10.101C4.935,99.346,0.633,95.13,0.633,89.245z M16.762,89.245c0-3.659-2.34-6.41-5.941-6.41
			c-3.601,0-5.912,2.751-5.912,6.41c0,3.63,2.312,6.413,5.912,6.413C14.421,95.658,16.762,92.875,16.762,89.245z"/>
		<path fill="#C9C9C9" d="M41.234,98.994V85.323L35.73,98.994h-1.814l-5.505-13.671v13.671h-4.157V79.469h5.826l4.743,11.797
			l4.743-11.797h5.854v19.525H41.234z"/>
		<path fill="#C9C9C9" d="M49.573,98.994V79.469h4.157v19.525H49.573z"/>
		<path fill="#C9C9C9" d="M56.569,96.243l2.253-3.163c1.377,1.436,3.514,2.637,6.207,2.637c2.283,0,3.395-1.055,3.395-2.168
			c0-3.455-11.241-1.084-11.241-8.432c0-3.249,2.812-5.94,7.407-5.94c3.103,0,5.68,0.936,7.612,2.721l-2.313,3.044
			c-1.58-1.463-3.688-2.136-5.679-2.136c-1.786,0-2.783,0.791-2.783,1.963c0,3.101,11.214,1.022,11.214,8.312
			c0,3.571-2.549,6.266-7.817,6.266C61.077,99.346,58.385,98.085,56.569,96.243z"/>
	</g>
</g>
</svg>
