<?xml version="1.0" encoding="utf-8"?>
<!DOCTYPE svg PUBLIC "-//W3C//DTD SVG 1.1//EN" "http://www.w3.org/Graphics/SVG/1.1/DTD/svg11.dtd">
<svg version="1.1" id="Layer_1" xmlns="http://www.w3.org/2000/svg" xmlns:xlink="http://www.w3.org/1999/xlink" x="0px" y="0px"
	 viewBox="0 0 175.253 126.527" enable-background="new 0 0 175.253 126.527"
	 xml:space="preserve">
<path fill="#FFFFFF" d="M111.983,0c-8.629,0-16.86,1.741-24.36,4.883C80.119,1.741,71.893,0,63.264,0C28.379,0,0,28.379,0,63.264
	c0,34.884,28.379,63.264,63.264,63.264h97.445c8.033,0,14.544-6.511,14.544-14.544v-48.72C175.253,28.379,146.871,0,111.983,0z
	 M66.264,66.445h31.012c-1.143,12.268-8.801,22.655-19.469,27.7c-3.56,1.685-7.447,2.779-11.543,3.147V66.445z M97.314,60.445
	H66.264V29.228c8.331,0.73,15.812,4.461,21.36,10.107C93.066,44.875,96.641,52.253,97.314,60.445z M58.554,29.45
	c0.566-0.078,1.138-0.135,1.71-0.191v31.187H29.209C30.521,44.488,42.852,31.63,58.554,29.45z M29.252,66.445h31.012v30.848
	c-4.097-0.367-7.983-1.463-11.543-3.147C38.049,89.098,30.395,78.711,29.252,66.445z M146.166,97.44h-29.709
	c6.36-9.865,10.07-21.594,10.07-34.177c0-12.43-3.619-24.025-9.837-33.813c16.62,2.307,29.476,16.571,29.476,33.813V97.44z"/>
</svg>
