<?xml version="1.0" encoding="utf-8"?>
<!DOCTYPE svg PUBLIC "-//W3C//DTD SVG 1.1//EN" "http://www.w3.org/Graphics/SVG/1.1/DTD/svg11.dtd">
<svg version="1.1" id="Layer_1" xmlns="http://www.w3.org/2000/svg" xmlns:xlink="http://www.w3.org/1999/xlink" x="0px" y="0px"
	 viewBox="0 0 175.253 126.527" enable-background="new 0 0 175.253 126.527"
	 xml:space="preserve">
<g>
	<path fill="#FFFFFF" d="M111.983,0c-8.629,0-16.86,1.741-24.36,4.883C80.119,1.741,71.893,0,63.264,0C28.379,0,0,28.379,0,63.264
		s28.379,63.263,63.264,63.263h97.445c8.033,0,14.544-6.51,14.544-14.543v-48.72C175.253,28.379,146.871,0,111.983,0z M48.72,94.146
		c-11.583-5.48-19.633-17.245-19.633-30.882c0-17.242,12.85-31.507,29.467-33.813c1.545-0.213,3.108-0.363,4.71-0.363
		c9.53,0,18.153,3.931,24.36,10.248c6.062,6.17,9.817,14.615,9.817,23.929c0,13.64-8.053,25.406-19.634,30.882
		c-4.419,2.09-9.339,3.295-14.543,3.295C58.057,97.441,53.14,96.236,48.72,94.146z M146.166,97.441h-29.709
		c6.36-9.865,10.07-21.594,10.07-34.177c0-12.43-3.619-24.025-9.837-33.813c16.62,2.307,29.476,16.571,29.476,33.813V97.441z"/>
</g>
</svg>
