<?xml version="1.0" encoding="utf-8"?>
<!DOCTYPE svg PUBLIC "-//W3C//DTD SVG 1.1//EN" "http://www.w3.org/Graphics/SVG/1.1/DTD/svg11.dtd">
<svg version="1.1" id="Layer_1" xmlns="http://www.w3.org/2000/svg" xmlns:xlink="http://www.w3.org/1999/xlink" x="0px" y="0px"
	 viewBox="0 0 175.253 126.527" enable-background="new 0 0 175.253 126.527"
	 xml:space="preserve">
<path fill="#FFFFFF" d="M111.983,0c-8.629,0-16.86,1.741-24.36,4.883C80.119,1.741,71.893,0,63.264,0C28.379,0,0,28.379,0,63.264
	c0,34.884,28.379,63.264,63.264,63.264h97.445c8.033,0,14.544-6.511,14.544-14.544v-48.72C175.253,28.379,146.871,0,111.983,0z
	 M65.264,65.445H97.36c-0.808,12.703-8.596,23.519-19.554,28.7c-3.849,1.82-8.078,2.968-12.543,3.234V65.445z M97.391,61.445H65.264
	V29.15c8.732,0.508,16.591,4.313,22.36,10.185C93.288,45.101,96.937,52.854,97.391,61.445z M58.554,29.45
	c0.895-0.123,1.799-0.213,2.71-0.277v32.272H29.139C30.006,45.028,42.525,31.675,58.554,29.45z M29.167,65.445h32.097V97.38
	c-4.467-0.267-8.694-1.413-12.543-3.234C37.76,88.961,29.975,78.146,29.167,65.445z M146.166,97.44h-29.709
	c6.36-9.865,10.07-21.594,10.07-34.177c0-12.43-3.619-24.025-9.837-33.813c16.62,2.307,29.476,16.571,29.476,33.813V97.44z"/>
</svg>
