<?xml version="1.0" encoding="utf-8"?>
<svg version="1.1" id="Layer_1" xmlns="http://www.w3.org/2000/svg" xmlns:xlink="http://www.w3.org/1999/xlink" x="0px" y="0px" viewBox="0 0 176.78 26.605" enable-background="new 0 0 176.78 26.605" xml:space="preserve">
    <style type="text/css" >
      <![CDATA[
.let{fill:#fff}
      ]]>
    </style>
<g>
	<path class="let" d="M20.677,12.597c0,4.916,2.848,7.527,6.314,7.527c1.451,0,2.815-0.503,4.03-1.868v1.512h5.336V0h-5.336
		v6.964c-1.128-1.366-2.579-1.869-4.03-1.869C23.465,5.095,20.677,7.852,20.677,12.597z M28.799,9.807
		c0.713,0,1.717,0.328,2.222,0.952v3.671c-0.504,0.623-1.509,0.978-2.222,0.978c-1.454,0-2.667-1.037-2.667-2.813
		C26.132,10.813,27.345,9.807,28.799,9.807z"/>
	<path class="let" d="M44.648,10.993c0.592-0.71,2.045-1.006,3.169-1.006c0.507,0,0.948,0.061,1.216,0.149V5.038
		c-1.63,0-3.496,0.947-4.386,1.987V5.453h-5.333v14.314h5.333V10.993z"/>
	<path class="let" d="M54.811,10.846c-2.132,0-4.919,1.008-4.919,4.564c0,3.262,2.787,4.714,4.919,4.714
		c1.778,0,3.526-0.712,4.326-1.721v1.365h5.335v-8.654c0-4.771-3.467-6.018-7.024-6.018c-2.162,0-4.831,0.624-6.757,2.164
		l1.808,3.291c1.127-0.857,2.638-1.393,3.972-1.393c1.746,0,2.666,0.77,2.666,1.778v1.482
		C58.367,11.438,56.678,10.846,54.811,10.846z M59.137,15.885c-0.356,0.505-1.276,0.77-2.105,0.77c-0.888,0-1.865-0.265-1.865-1.158
		c0-0.887,0.977-1.183,1.865-1.183c0.83,0,1.749,0.266,2.105,0.769V15.885z"/>
	<polygon class="let" points="76.708,19.767 82.247,5.453 76.616,5.453 73.863,13.63 71.132,5.453 65.505,5.453 71.045,19.767 	
		"/>
	<rect x="83.398" class="let" width="5.987" height="19.767"/>
	<path class="let" d="M97.797,10.935c0.359-0.415,1.01-1.127,2.167-1.127c1.213,0,1.626,0.743,1.626,1.603v8.357h5.337v-8.832
		c0.355-0.415,1.006-1.128,2.192-1.128c1.187,0,1.63,0.743,1.63,1.603v8.357h5.334V9.394c0-2.962-1.777-4.298-4.417-4.298
		c-2.31,0-4.177,1.276-5.007,2.521c-0.649-1.778-2.104-2.521-4.12-2.521c-2.311,0-4.119,1.187-4.742,1.987V5.453h-5.333v14.314
		h5.333L97.797,10.935L97.797,10.935z"/>
	<path class="let" d="M143.664,20.124c2.129,0,4.681-0.565,6.101-1.78l-2.188-3.289c-0.712,0.623-2.491,1.008-3.291,1.008
		c-1.75,0-2.787-0.888-3.083-1.807h9.721v-1.097c0-5.038-3.231-8.062-7.44-8.062c-4.62,0-7.794,3.348-7.794,7.501
		C135.689,17.306,139.187,20.124,143.664,20.124z M143.483,9.157c1.721,0,2.223,1.097,2.371,1.72h-4.71
		C141.322,10.224,141.853,9.157,143.483,9.157z"/>
	<path class="let" d="M173.516,21.49l-0.449-0.627l-7.599-11.261l1.901-2.958L171.635,0h-7.086l-3.14,5.631L158.209,0h-7.022
		l6.163,9.632l-6.607,10.135h7.052l3.615-6.044l3.616,6.044h0.075l1.054,1.722h-41.781v-3.234c1.187,1.365,2.55,1.868,4.031,1.868
		c3.559,0,6.285-2.611,6.285-7.527c0-4.892-2.727-7.501-6.285-7.501c-1.481,0-2.874,0.503-4.031,1.869V5.453h-5.332v16.036H10.708
		l9.999-15.506L24.567,0h-7.413H4.802v5.983h8.493L1.649,24.047L0,26.605h7.411H176.78L173.516,21.49z M124.374,10.787
		c0.503-0.622,1.513-0.979,2.195-0.979c1.42,0,2.666,1.006,2.666,2.79c0,1.806-1.245,2.813-2.666,2.813
		c-0.683,0-1.72-0.386-2.195-0.978V10.787z"/>
</g>
</svg>
