<?xml version="1.0" encoding="utf-8"?>
<!-- Generator: Adobe Illustrator 15.1.0, SVG Export Plug-In . SVG Version: 6.00 Build 0)  -->
<!DOCTYPE svg PUBLIC "-//W3C//DTD SVG 1.1//EN" "http://www.w3.org/Graphics/SVG/1.1/DTD/svg11.dtd">
<svg version="1.1" id="Layer_1" xmlns="http://www.w3.org/2000/svg" xmlns:xlink="http://www.w3.org/1999/xlink" x="0px" y="0px"
	 width="24px" height="32px" viewBox="0 0 24 32" enable-background="new 0 0 24 32" xml:space="preserve">
<g>
	<polygon points="14,0 14,9.998 24,9.998 	"/>
	<path d="M7.759,21.176c0,2.339,1.903,4.241,4.242,4.241c2.339,0,4.241-1.902,4.241-4.241s-1.902-4.242-4.241-4.242
		C9.662,16.934,7.759,18.837,7.759,21.176z"/>
	<path d="M12.812,9.998V0H0v32h24V11.186H12.812V9.998z M19.242,21.176c0,3.993-3.248,7.241-7.241,7.241s-7.242-3.248-7.242-7.241
		s3.249-7.242,7.242-7.242S19.242,17.183,19.242,21.176z"/>
</g>
</svg>
